<mxfile host="app.diagrams.net" modified="2021-09-23T06:36:41.667Z" agent="5.0 (X11; Linux x86_64) AppleWebKit/537.36 (KHTML, like Gecko) Chrome/95.0.4613.0 Safari/537.36 Edg/95.0.1000.0" etag="sfzQTT19hetCV4QIGIAB" version="15.2.9" type="github">
  <diagram id="Hj7Q_Jciw4nzZQ8Qi_2c" name="Page-1">
    <mxGraphModel dx="1750" dy="1134" grid="1" gridSize="10" guides="1" tooltips="1" connect="1" arrows="1" fold="1" page="1" pageScale="1" pageWidth="827" pageHeight="1169" math="0" shadow="0">
      <root>
        <mxCell id="0" />
        <mxCell id="1" parent="0" />
        <mxCell id="A2cVZQFBHPuvANkPRbIw-1" value="" style="swimlane;startSize=0;" vertex="1" parent="1">
          <mxGeometry x="160" y="80" width="500" height="660" as="geometry" />
        </mxCell>
      </root>
    </mxGraphModel>
  </diagram>
</mxfile>
